<svg width="19" height="19" viewBox="0 0 19 19" fill="none" xmlns="http://www.w3.org/2000/svg">
<path d="M7.53898 13.23C5.94032 13.23 4.58532 12.6747 3.47398 11.564C2.36332 10.454 1.80798 9.09935 1.80798 7.50002C1.80798 5.90069 2.36332 4.54569 3.47398 3.43502C4.58465 2.32435 5.93965 1.76935 7.53898 1.77002C9.13832 1.77069 10.493 2.32602 11.603 3.43602C12.713 4.54602 13.2683 5.90069 13.269 7.50002C13.269 8.19469 13.146 8.86702 12.9 9.51702C12.654 10.167 12.3306 10.723 11.93 11.185L17.839 17.092C17.9323 17.1854 17.9823 17.3004 17.989 17.437C17.995 17.5724 17.945 17.6934 17.839 17.8C17.7323 17.9067 17.6143 17.96 17.485 17.96C17.3556 17.96 17.2376 17.9067 17.131 17.8L11.223 11.892C10.723 12.318 10.148 12.6477 9.49798 12.881C8.84798 13.1144 8.19465 13.231 7.53798 13.231M7.53798 12.231C8.86465 12.231 9.98498 11.7744 10.899 10.861C11.8123 9.94769 12.269 8.82735 12.269 7.50002C12.269 6.17269 11.8126 5.05269 10.9 4.14002C9.98732 3.22735 8.86732 2.77069 7.53998 2.77002C6.21265 2.77002 5.09232 3.22669 4.17898 4.14002C3.26565 5.05335 2.80865 6.17335 2.80798 7.50002C2.80732 8.82669 3.26398 9.94669 4.17798 10.86C5.09198 11.7734 6.21198 12.23 7.53798 12.23" fill="#3B1E54"/>
<path d="M7.53898 13.23C5.94032 13.23 4.58532 12.6747 3.47398 11.564C2.36332 10.454 1.80798 9.09935 1.80798 7.50002C1.80798 5.90069 2.36332 4.54569 3.47398 3.43502C4.58465 2.32435 5.93965 1.76935 7.53898 1.77002C9.13832 1.77069 10.493 2.32602 11.603 3.43602C12.713 4.54602 13.2683 5.90069 13.269 7.50002C13.269 8.19469 13.146 8.86702 12.9 9.51702C12.654 10.167 12.3306 10.723 11.93 11.185L17.839 17.092C17.9323 17.1854 17.9823 17.3004 17.989 17.437C17.995 17.5724 17.945 17.6934 17.839 17.8C17.7323 17.9067 17.6143 17.96 17.485 17.96C17.3557 17.96 17.2377 17.9067 17.131 17.8L11.223 11.892C10.723 12.318 10.148 12.6477 9.49798 12.881C8.84798 13.1144 8.19465 13.231 7.53798 13.231M7.53798 12.231C8.86465 12.231 9.98498 11.7744 10.899 10.861C11.8123 9.94769 12.269 8.82735 12.269 7.50002C12.269 6.17269 11.8126 5.05269 10.9 4.14002C9.98732 3.22735 8.86732 2.77069 7.53998 2.77002C6.21265 2.77002 5.09232 3.22669 4.17898 4.14002C3.26565 5.05335 2.80865 6.17335 2.80798 7.50002C2.80732 8.82669 3.26398 9.94669 4.17798 10.86C5.09198 11.7734 6.21198 12.23 7.53798 12.23" stroke="#3B1E54" stroke-width="2"/>
</svg>
